<svg xmlns="http://www.w3.org/2000/svg" width="47.684" height="53.658" viewBox="0 0 47.684 53.658">
  <g id="Group_9442" data-name="Group 9442" transform="translate(315.829 -491.47)" opacity="0.85">
    <path id="Path_833" data-name="Path 833" d="M-303.917,491.47c.612.14,1.227.258,1.83.418a22.922,22.922,0,0,1,5.495,1.982,7.239,7.239,0,0,1,3.9,6.754c-.012,1.178-.263,2.351-.39,3.525a2.085,2.085,0,0,0,.062.6,4.581,4.581,0,0,1,.238,1.108,6.707,6.707,0,0,1-1.026,3.779,1.439,1.439,0,0,0-.156.493,13.059,13.059,0,0,1-4.986,7.756,6.421,6.421,0,0,1-8.593-.205,12.861,12.861,0,0,1-4.461-7.44,4.122,4.122,0,0,0-.349-.849,7.281,7.281,0,0,1-.78-4.149.646.646,0,0,1,.14-.386c.542-.472.312-1.046.238-1.6a15.665,15.665,0,0,1-.053-4.694,6.856,6.856,0,0,1,1.453-3.1,11.031,11.031,0,0,1,5.088-3.714,9.98,9.98,0,0,1,1.621-.279Zm-7.748,14.555c.238.808.464,1.658.735,2.495a11.541,11.541,0,0,1,.484,1.12,11.551,11.551,0,0,0,3.64,6.5c2.335,2.117,4.641,2.171,7.116.225a12.525,12.525,0,0,0,3.418-4.444c.607-1.227.624-2.655,1.42-3.837a5.04,5.04,0,0,0,.419-1.925.543.543,0,0,0-.156-.43.955.955,0,0,1-.336-1.108,23.346,23.346,0,0,0,.591-3.073c.259-3-.78-5.22-3.632-6.554a22.57,22.57,0,0,0-5.68-1.756,4.473,4.473,0,0,0-2.987.414,10.572,10.572,0,0,0-3.188,2.515,5.783,5.783,0,0,0-1.457,3.345,21.43,21.43,0,0,0,.386,5.047C-310.757,505.394-310.815,505.541-311.664,506.026Z" transform="translate(8.217 0)"/>
    <path id="Path_834" data-name="Path 834" d="M-278.912,502.872c-5.536.665-9.508,3.373-11.4,8.577-1.883,5.187-.558,9.8,3.254,13.841-.813.095-1.564.222-2.315.263-1.847.1-3.7.222-5.544.222a56.64,56.64,0,0,1-9.414-.985,49.3,49.3,0,0,1-8.667-2.154c-.492-.181-.96-.418-1.461-.57a1.68,1.68,0,0,1-1.264-1.51,16.476,16.476,0,0,1-.078-2.913,43.03,43.03,0,0,1,1.555-9.221,27.337,27.337,0,0,1,1.518-3.825,6.036,6.036,0,0,1,3.812-2.9,30.971,30.971,0,0,0,5.963-2.519,17.817,17.817,0,0,0,1.736-1.334c.135.271.336.665.534,1.055a12.476,12.476,0,0,0,2.758,3.784,3.919,3.919,0,0,0,5.61.066,15.223,15.223,0,0,0,3.316-4.407c.119-.213.234-.431.361-.669.932,1.485,2.483,1.949,3.956,2.569,1.8.751,3.57,1.568,5.351,2.364A3.787,3.787,0,0,1-278.912,502.872Z" transform="translate(0 19.239)"/>
    <path id="Path_835" data-name="Path 835" d="M-309.333,509.856a10.543,10.543,0,0,1,10.575-10.427,10.543,10.543,0,0,1,10.448,10.6,10.542,10.542,0,0,1-10.706,10.4A10.536,10.536,0,0,1-309.333,509.856Zm9.4,1.65c-.176-.205-.3-.357-.431-.493q-1.41-1.434-2.836-2.864c-.423-.423-.689-.419-1.112-.013-.291.279-.57.567-.854.854-.484.492-.488.735,0,1.223q2.3,2.321,4.612,4.641c.533.537.747.533,1.293-.012q2.388-2.382,4.776-4.772,1.557-1.557,3.106-3.111c.46-.46.46-.694.021-1.149-.291-.3-.591-.6-.891-.886-.439-.427-.673-.431-1.108,0-.5.484-.989.981-1.481,1.477Z" transform="translate(20.162 24.694)"/>
  </g>
</svg>
