<svg xmlns="http://www.w3.org/2000/svg" width="25.791" height="30.321" viewBox="0 0 25.791 30.321">
  <g id="avatar" transform="translate(0 -1)">
    <g id="Group_14" data-name="Group 14" transform="translate(0 1)">
      <path id="Path_2" data-name="Path 2" d="M143.525,16.338h.2a5.794,5.794,0,0,0,4.427-1.915c2.417-2.725,2.016-7.4,1.972-7.842-.157-3.347-1.739-4.948-3.045-5.7A6.981,6.981,0,0,0,143.7,0h-.107a6.992,6.992,0,0,0-3.378.86c-1.319.747-2.926,2.348-3.083,5.72-.044.446-.446,5.117,1.972,7.842A5.771,5.771,0,0,0,143.525,16.338Zm-4.716-9.6c0-.019.006-.038.006-.05.207-4.5,3.4-4.986,4.772-4.986h.075c1.7.038,4.577.728,4.772,4.986a.122.122,0,0,0,.006.05c.006.044.446,4.314-1.551,6.562a4.115,4.115,0,0,1-3.234,1.344h-.063a4.1,4.1,0,0,1-3.227-1.344C138.376,11.064,138.8,6.775,138.81,6.737Z" transform="translate(-130.739)" fill="#fff"/>
      <path id="Path_3" data-name="Path 3" d="M61.862,267.052v-.019c0-.05-.006-.1-.006-.157-.038-1.243-.119-4.15-2.844-5.08l-.063-.019a18.121,18.121,0,0,1-5.212-2.373.847.847,0,1,0-.973,1.388,19.553,19.553,0,0,0,5.733,2.618c1.463.521,1.626,2.085,1.67,3.516a1.261,1.261,0,0,0,.006.157,11.4,11.4,0,0,1-.132,1.94,23.108,23.108,0,0,1-11.07,2.574A23.241,23.241,0,0,1,37.9,269.018a10.789,10.789,0,0,1-.132-1.94c0-.05.006-.1.006-.157.044-1.432.207-3,1.67-3.516a19.739,19.739,0,0,0,5.733-2.618A.847.847,0,0,0,44.2,259.4a17.918,17.918,0,0,1-5.212,2.373c-.025.006-.044.013-.063.019-2.725.936-2.807,3.843-2.844,5.08a1.261,1.261,0,0,1-.006.157v.019a9.629,9.629,0,0,0,.32,2.844.806.806,0,0,0,.327.4c.188.126,4.7,3,12.257,3s12.068-2.882,12.257-3a.841.841,0,0,0,.327-.4A10.1,10.1,0,0,0,61.862,267.052Z" transform="translate(-36.073 -242.966)" fill="#fff"/>
    </g>
  </g>
</svg>
