<svg id="btn_send" xmlns="http://www.w3.org/2000/svg" width="43.311" height="43.311" viewBox="0 0 43.311 43.311">
  <path id="Path_20" data-name="Path 20" d="M21.655,0A21.655,21.655,0,1,1,0,21.655,21.655,21.655,0,0,1,21.655,0Z" fill="#57b472"/>
  <path id="icn_send" d="M19.408,6.933.589.04A.345.345,0,0,0,.181.086.56.56,0,0,0,0,.449V5.3A1.361,1.361,0,0,0,1.043,6.616l3.265.771-3.265.771A1.273,1.273,0,0,0,0,9.427v4.852a.56.56,0,0,0,.181.363.645.645,0,0,0,.272.091.167.167,0,0,0,.136-.045L19.408,7.749a.436.436,0,0,0,.317-.408A.484.484,0,0,0,19.408,6.933Z" transform="translate(13.293 14.511)" fill="#fff"/>
</svg>
