<svg xmlns="http://www.w3.org/2000/svg" width="52.855" height="52.856" viewBox="0 0 52.855 52.856">
  <g id="Group_10853" data-name="Group 10853" transform="translate(1956.17 -194.47)" opacity="0.7">
    <path id="Path_14365" data-name="Path 14365" d="M-1956.17,241.029c.061-.853.136-1.706.181-2.56a101.552,101.552,0,0,1,1.5-13.369c.591-3.154,1.376-6.271,2.094-9.4a1.369,1.369,0,0,0-.079-1.017,4.317,4.317,0,0,1,.231-4.56c1.551-2.313,3.177-4.576,4.8-6.841a4.534,4.534,0,0,1,2.967-1.784,5.386,5.386,0,0,1,1.168-5.217,5.172,5.172,0,0,1,3.55-1.789,5.4,5.4,0,0,1,5.851,4.887,5.468,5.468,0,0,1-5.272,5.962c.368,1.969-.7,3.436-1.872,4.914,1.227.435,2.364.865,3.52,1.243a4.78,4.78,0,0,1,3.351,3.471.461.461,0,0,0,.32.284,6.9,6.9,0,0,1,4,1.133,17.75,17.75,0,0,1,1.366-1.712,16.046,16.046,0,0,1,1.657-1.277,5.477,5.477,0,0,1-.06-8.181,5.457,5.457,0,0,1,7.687.5,5.493,5.493,0,0,1-1.374,8.3c.246.216.495.419.724.641a6.364,6.364,0,0,1,1.779,3.31c.414,1.9.849,3.788,1.251,5.687.084.4.249.513.654.492,1.014-.052,2.03-.05,3.044-.064a4.708,4.708,0,0,1,4.968,4.524c.3,3.149.669,6.291,1.008,9.436.009.084.024.166.037.249.327.1.643.181.943.3a4.54,4.54,0,0,1,2.844,4.583,4.561,4.561,0,0,1-3.568,4.049c-.116.025-.227.069-.341.1h-1.238a.326.326,0,0,0-.087-.052,4.576,4.576,0,0,1-3.551-2.955.608.608,0,0,0-.463-.261c-.978-.036-1.958-.019-2.935-.056a1.026,1.026,0,0,0-.888.369,8.632,8.632,0,0,1-4.6,2.663c-.6.131-1.215.2-1.823.293h-.413c-.2-.029-.4-.074-.608-.087a9.215,9.215,0,0,1-8.556-8.93,9.124,9.124,0,0,1,4-7.947c.207-.15.351-.259.279-.572-.658-2.879-1.277-5.768-1.946-8.644a3.364,3.364,0,0,0-2.642-2.669,6.071,6.071,0,0,0-1.588-.1.912.912,0,0,0-.617.315,4.769,4.769,0,0,1-3.389,1.934,6.588,6.588,0,0,1-2.951-.589l-2.46-.868c-.146.575-.28,1.086-.406,1.6a12.625,12.625,0,0,0-.287,1.306.68.68,0,0,0,.212.47,34.134,34.134,0,0,1,9.053,17.677,10.323,10.323,0,0,1,.27,3.108,4.472,4.472,0,0,1-4.527,3.913,4.566,4.566,0,0,1-4.574-3.885,31,31,0,0,0-1.957-6.71c-.141-.335-.3-.664-.446-1a12.922,12.922,0,0,0-.245,1.979c-.09,1.7-.179,3.4-.247,5.1a4.638,4.638,0,0,1-3.288,4.344c-.376.111-.769.165-1.154.245h-.413c-.132-.03-.262-.069-.4-.09a4.562,4.562,0,0,1-3.84-3.258c-.076-.223-.136-.452-.2-.678Zm31.007-12.124a9,9,0,0,1,8.889,2.888,9.113,9.113,0,0,1,1.969,9.158c.667,0,1.282-.014,1.895.006a.616.616,0,0,0,.612-.335,4.88,4.88,0,0,1,1.08-1.291,1.115,1.115,0,0,0,.461-1.22q-.524-4.635-1.005-9.275a1.6,1.6,0,0,0-1.812-1.657c-1.5.026-2.991.067-4.486.1-1.206.026-1.7-.38-1.97-1.574-.541-2.43-1.073-4.861-1.638-7.286a3.078,3.078,0,0,0-3.719-2.352,3.1,3.1,0,0,0-2.307,3.706c.208.991.434,1.979.654,2.967C-1926.086,224.782-1925.629,226.823-1925.163,228.9Zm2.042,15.255a6.139,6.139,0,0,0,6.178-6.083,6.194,6.194,0,0,0-6.174-6.268,6.188,6.188,0,0,0-6.207,6.128A6.136,6.136,0,0,0-1923.121,244.16Zm-26.442-27.054c-.05.148-.085.226-.1.307-.464,2.006-.915,4.016-1.394,6.018a.89.89,0,0,0,.3.985,31.282,31.282,0,0,1,6.777,9.078,34.2,34.2,0,0,1,3.053,9.312,1.51,1.51,0,0,0,1.865,1.314,1.551,1.551,0,0,0,1.129-1.914c-.087-.491-.177-.98-.272-1.469a30.062,30.062,0,0,0-8.323-16.082,2.89,2.89,0,0,1-.925-3.326c.347-1.031.525-2.118.783-3.2Zm5.949-12.543a1.638,1.638,0,0,0-1.5.757c-1.458,2.084-2.928,4.162-4.386,6.247a1.552,1.552,0,0,0,.8,2.549q4.658,1.657,9.324,3.293a2.069,2.069,0,0,0,.8.123,1.528,1.528,0,0,0,1.385-1.313,1.558,1.558,0,0,0-1.072-1.686c-1.81-.65-3.627-1.279-5.439-1.922a1.59,1.59,0,0,1-.851-2.7c.68-.971,1.369-1.938,2.042-2.915a1.478,1.478,0,0,0,.107-1.609A1.412,1.412,0,0,0-1943.614,204.563Zm-8.045,23.216-.152.087a123.1,123.1,0,0,0-1.255,14.585,1.567,1.567,0,0,0,1.509,1.735,1.573,1.573,0,0,0,1.586-1.666c.045-1.151.068-2.305.158-3.453.2-2.554.44-5.1.658-7.657.015-.184.057-.427-.037-.548C-1950,229.821-1950.834,228.8-1951.66,227.779Zm28.363-20.819a2.315,2.315,0,0,0-2.313,2.286,2.343,2.343,0,0,0,2.317,2.348,2.339,2.339,0,0,0,2.314-2.3A2.323,2.323,0,0,0-1923.3,206.96Zm-16-9.388a2.33,2.33,0,0,0-2.308,2.349,2.328,2.328,0,0,0,2.32,2.284,2.331,2.331,0,0,0,2.31-2.35A2.327,2.327,0,0,0-1939.3,197.573Zm31.479,46.652a1.445,1.445,0,0,0,1.4-1.432,1.452,1.452,0,0,0-1.455-1.435,1.46,1.46,0,0,0-1.407,1.434A1.458,1.458,0,0,0-1907.822,244.225Z" transform="translate(0 0)"/>
    <path id="Path_14366" data-name="Path 14366" d="M-1892.72,278.355a.522.522,0,0,1,.511.537.533.533,0,0,1-.541.512.534.534,0,0,1-.512-.542A.523.523,0,0,1-1892.72,278.355Z" transform="translate(-30.129 -34.73)"/>
  </g>
</svg>
