<svg id="Group_9434" data-name="Group 9434" xmlns="http://www.w3.org/2000/svg" width="223.932" height="225.723" viewBox="0 0 223.932 225.723">
  <path id="Path_1125" data-name="Path 1125" d="M219.121,294.969H4.811A10.127,10.127,0,0,1,0,290.12V168a17.317,17.317,0,0,1,1.929.911q52.385,32.844,104.722,65.767c3.782,2.388,6.864,2.392,10.633.014q52.2-32.936,104.54-65.649A22.636,22.636,0,0,1,223.932,168V290.12a10.132,10.132,0,0,1-4.811,4.85" transform="translate(0 -69.246)" fill="#57b472"/>
  <path id="Path_1127" data-name="Path 1127" d="M138.861,45q33.231,0,66.462,0c5.4,0,7.847,2.481,7.848,7.949,0,23.286-.021,46.572.047,69.859a3.519,3.519,0,0,1-1.947,3.45Q176,148.306,140.809,170.483a3.075,3.075,0,0,1-3.866.069q-35.18-22.193-70.463-44.221a3.7,3.7,0,0,1-2.06-3.609c.071-23.212.046-46.425.047-69.638,0-5.641,2.4-8.083,7.932-8.083q33.231,0,66.462,0M149.2,123.239a12.784,12.784,0,0,0,7.976,6.026c6.587,1.555,14.228-1.943,18.038-8.8a36.071,36.071,0,0,0,4.436-24.008,41.186,41.186,0,0,0-38.014-33.771,41.9,41.9,0,1,0-4.291,83.688c2.911.137,4.849-1.52,5.009-4.059.17-2.707-1.591-4.5-4.588-4.751a43.43,43.43,0,0,1-4.772-.551,33.054,33.054,0,1,1,13.559-64.695C162,75.83,177.527,93.124,168.782,113.863c-1.307,3.1-3.157,5.618-6.56,6.572-3.556,1-5.848-.583-6.2-4.3a21.484,21.484,0,0,1-.033-2.2c.07-9.772.153-19.543.2-29.315a10.607,10.607,0,0,0-.341-3.04,4.227,4.227,0,0,0-4.409-2.9,4.333,4.333,0,0,0-3.89,3.6c-.106.611-.136,1.236-.22,2.044-.552-.273-.871-.417-1.177-.584a18.058,18.058,0,0,0-21.607,2.82c-10.576,9.894-9.164,29.753,2.725,38.015,4.108,2.855,8.693,3.988,13.5,2.577,2.859-.839,5.478-2.508,8.431-3.912" transform="translate(-26.853 -18.548)" fill="#57b472"/>
  <path id="Path_1128" data-name="Path 1128" d="M342.192,148.18V121.3l18.381,15.346L342.192,148.18" transform="translate(-142.64 -49.997)" fill="#57b472"/>
  <path id="Path_1129" data-name="Path 1129" d="M28.744,121.237v26.931L10.328,136.619l18.416-15.382" transform="translate(-4.305 -49.972)" fill="#57b472"/>
  <path id="Path_1126" data-name="Path 1126" d="M181.026,0l16.037,12.649q-.114.215-.226.431h-35l-.356-.373L177.527,0Z" transform="translate(-67.31 0)" fill="#57b472"/>
</svg>
