<svg xmlns="http://www.w3.org/2000/svg" width="46.993" height="46.982" viewBox="0 0 46.993 46.982">
  <g id="Group_11452" data-name="Group 11452" transform="translate(-1543.902 -379.601)">
    <path id="Path_836" data-name="Path 836" d="M-903.491,1065.24a2.906,2.906,0,0,1-.831,2.129,2.668,2.668,0,0,1-2.979.648,2.563,2.563,0,0,1-1.794-2.461c-.039-4.317-.033-8.634-.006-12.951a2.767,2.767,0,0,1,2.578-2.668,2.8,2.8,0,0,1,2.914,2.089c.051.193.087.39.135.606a9.364,9.364,0,0,1,4.691-.495,26.686,26.686,0,0,1,4.071,1.247,18.49,18.49,0,0,0,4.648,1.408,8.109,8.109,0,0,0,.82.045c3,0,6,.041,9-.013a4.046,4.046,0,0,1,3.934,2.046c.136-.081.262-.143.374-.224,2.373-1.711,4.75-3.415,7.112-5.14a4.4,4.4,0,0,1,3.348-.9,3.549,3.549,0,0,1,2.927,4.8,4.8,4.8,0,0,1-.989,1.74,49.691,49.691,0,0,1-10.711,8.923,28.981,28.981,0,0,1-9.027,3.569,13.487,13.487,0,0,1-8.3-1q-3.445-1.479-6.942-2.833a11.21,11.21,0,0,0-4.316-.625C-903.05,1065.184-903.263,1065.218-903.491,1065.24Zm-.021-1.856c4.691.247,5.648.481,9.931,2.395q1.476.659,2.96,1.3a11.39,11.39,0,0,0,7.026.787,26.029,26.029,0,0,0,6.692-2.379,45.566,45.566,0,0,0,12.1-9.61,2.607,2.607,0,0,0,.537-.942,1.822,1.822,0,0,0-1.081-2.46,2.432,2.432,0,0,0-2.2.336q-4.053,2.914-8.09,5.85a.864.864,0,0,0-.315.47,3.734,3.734,0,0,1-3.914,3.2q-4.775,0-9.55,0a2.168,2.168,0,0,1-.438-.015.83.83,0,0,1-.735-.883.817.817,0,0,1,.749-.866,3.678,3.678,0,0,1,.6-.02c3.092,0,6.184,0,9.275-.007a3.126,3.126,0,0,0,1.021-.15,1.924,1.924,0,0,0,1.207-2.162,1.962,1.962,0,0,0-2.012-1.6c-3.092-.008-6.184-.018-9.275,0a11.193,11.193,0,0,1-3.823-.618c-1.566-.551-3.1-1.195-4.664-1.752a8.011,8.011,0,0,0-5.531.143.637.637,0,0,0-.483.721c.019,2.58.01,5.16.01,7.74Zm-3.812-4.319c0,2.031,0,4.062,0,6.094,0,.8.367,1.237,1,1.24.655,0,1.031-.463,1.018-1.282-.006-.42-.049-.84-.05-1.259q-.007-4.447,0-8.893c0-.711.057-1.423.044-2.134a1,1,0,0,0-1.213-1.061c-.519.1-.8.5-.8,1.2C-907.327,1055-907.324,1057.033-907.324,1059.064Z" transform="translate(2453.124 -643.422)" fill="#161620" stroke="#16161f" stroke-width="0.2"/>
    <path id="Path_837" data-name="Path 837" d="M-808.971,961.308q-4.414,0-8.828,0c-1.069,0-1.333-.261-1.326-1.326.012-1.828-.078-3.665.075-5.481a7.164,7.164,0,0,1,6.942-6.587,56.819,56.819,0,0,1,6.849.068,7.168,7.168,0,0,1,6.5,6.971c.055,1.772.021,3.547.011,5.321,0,.732-.352,1.032-1.174,1.033Q-804.448,961.313-808.971,961.308Zm-4.906-1.84h9.859c.007-.146.016-.254.016-.362,0-.878-.013-1.756.009-2.634a.9.9,0,0,1,.907-.908.891.891,0,0,1,.87.883c.018.218.01.439.01.658,0,.782,0,1.565,0,2.362h1.624c0-1.574.059-3.112-.013-4.644a5.394,5.394,0,0,0-5.211-5.1c-2.083-.052-4.17-.047-6.254,0a5.235,5.235,0,0,0-5.068,4.232,47.237,47.237,0,0,0-.247,5.507h1.714c0-.975,0-1.906,0-2.836,0-.669.365-1.078.913-1.061.526.016.862.418.866,1.056C-813.872,957.554-813.877,958.485-813.877,959.469Z" transform="translate(2376.334 -556.307)" fill="#161620" stroke="#16161f" stroke-width="0.2"/>
    <path id="Path_838" data-name="Path 838" d="M-779.3,877.349a5.1,5.1,0,0,1-5.1-5.084,5.116,5.116,0,0,1,5.116-5.136,5.137,5.137,0,0,1,5.115,5.091A5.125,5.125,0,0,1-779.3,877.349Zm3.31-5.119a3.314,3.314,0,0,0-3.32-3.307,3.315,3.315,0,0,0-3.292,3.335,3.321,3.321,0,0,0,3.322,3.308A3.312,3.312,0,0,0-775.987,872.231Z" transform="translate(2346.69 -487.428)" fill="#161620" stroke="#16161f" stroke-width="0.2"/>
  </g>
</svg>
