<svg id="copy" xmlns="http://www.w3.org/2000/svg" width="47.986" height="59.928" viewBox="0 0 47.986 59.928">
  <g id="Group_20" data-name="Group 20" transform="translate(0)">
    <path id="Path_17" data-name="Path 17" d="M81.389,85.4H53.408a4.761,4.761,0,0,0-4.758,4.758v40.147a4.761,4.761,0,0,0,4.758,4.758H81.389a4.761,4.761,0,0,0,4.758-4.758V90.158A4.777,4.777,0,0,0,81.389,85.4Zm1.418,44.893a1.431,1.431,0,0,1-1.43,1.43H53.4a1.431,1.431,0,0,1-1.43-1.43V90.158a1.431,1.431,0,0,1,1.43-1.43H81.377a1.431,1.431,0,0,1,1.43,1.43Z" transform="translate(-48.65 -75.136)" fill="#fff"/>
    <path id="Path_18" data-name="Path 18" d="M168.189,0H140.208a4.761,4.761,0,0,0-4.758,4.758,1.664,1.664,0,0,0,3.328,0,1.431,1.431,0,0,1,1.43-1.43h27.981a1.431,1.431,0,0,1,1.43,1.43V44.905a1.431,1.431,0,0,1-1.43,1.43,1.664,1.664,0,0,0,0,3.328,4.761,4.761,0,0,0,4.758-4.758V4.758A4.761,4.761,0,0,0,168.189,0Z" transform="translate(-124.961)" fill="#fff"/>
  </g>
</svg>
