<svg xmlns="http://www.w3.org/2000/svg" width="137.095" height="159.979" viewBox="0 0 137.095 159.979">
  <g id="Group_9432" data-name="Group 9432" transform="translate(0)">
    <path id="Path_1116" data-name="Path 1116" d="M838.15,264.973c-3.691-1.284-5.016-3.925-5-7.8.086-23.275.042-46.551.043-69.826,0-4.993,2.35-7.372,7.289-7.373q61.214,0,122.427,0c4.938,0,7.292,2.383,7.292,7.372,0,23.275-.042,46.551.043,69.826.015,3.873-1.307,6.519-5,7.8Zm58.893-36.811c0,.885-.033,1.771.006,2.654a4.648,4.648,0,0,0,9.291.052,21.418,21.418,0,0,0,0-3.12c-.131-1.356.389-1.99,1.667-2.507a17.2,17.2,0,0,0,6.153-27.654,16.9,16.9,0,0,0-18.89-4.2,17.21,17.21,0,0,0-10.622,15.842,4.644,4.644,0,0,0,9.175,1.154,9.626,9.626,0,0,0,.154-1.546,7.8,7.8,0,0,1,6.887-7.276,7.7,7.7,0,0,1,8.33,5.924,7.778,7.778,0,0,1-4.6,9.041c-5.741,2.434-7.556,5.23-7.55,11.639m0,19.9a4.667,4.667,0,1,0,4.695-4.92,4.744,4.744,0,0,0-4.695,4.92" transform="translate(-833.149 -104.994)" fill="#57b472"/>
    <path id="Path_1117" data-name="Path 1117" d="M926.337,0c3.233.625,6.526,1.029,9.689,1.911a49.183,49.183,0,0,1,35.284,41.6,65.007,65.007,0,0,1,.368,6.7c.053,5.046.017,10.092.017,15.26H956.534c0-.562,0-1.161,0-1.76-.013-5.1.1-10.209-.064-15.306a33.772,33.772,0,0,0-67.291-3.431c-.648,6.026-.289,12.162-.385,18.248-.012.719,0,1.438,0,2.263H873.821c-.048-.1-.169-.232-.168-.364.076-6.972-.429-14.013.361-20.9,2.191-19.111,12.473-32.5,29.8-40.4A43.218,43.218,0,0,1,917.865.256,6.866,6.866,0,0,0,918.9,0Z" transform="translate(-856.859)" fill="#57b472"/>
  </g>
</svg>
