<svg xmlns="http://www.w3.org/2000/svg" xmlns:xlink="http://www.w3.org/1999/xlink" width="69.148" height="46.784" viewBox="0 0 69.148 46.784">
  <defs>
    <clipPath id="clip-path">
      <rect id="Rectangle_3078" data-name="Rectangle 3078" width="69.148" height="46.784" fill="#161620"/>
    </clipPath>
  </defs>
  <g id="Group_11077" data-name="Group 11077" opacity="0.8">
    <g id="Group_11076" data-name="Group 11076" clip-path="url(#clip-path)">
      <path id="Path_14390" data-name="Path 14390" d="M201.1,81.633q-6.465,11.931-12.925,23.867a1.957,1.957,0,0,0-.186.758c-.03.434-.008.874-.008,1.359h-1.978c-.018-.448-.036-.881-.058-1.424-1.008-.363-2.025-.782-3.063-1.092q-3.763-1.122-7.543-2.155a8.971,8.971,0,0,0-5.452.577c-1.207.429-2.386.982-3.59,1.424-.432.159-.566.427-.536.95.031.549.007,1.1.007,1.711h-1.959c-.026-.425-.052-.856-.077-1.28a6.039,6.039,0,0,1-1.221-.093,2.369,2.369,0,0,1-1.52-2.191,2.548,2.548,0,0,1,1.271-2.665c2.081-.96,4.187-1.833,6.28-2.752,4.112-1.805,8.163-.893,12.2.41,1.391.448,2.786.882,4.156,1.411.633.244.97.125,1.354-.591,3.614-6.736,7.268-13.439,10.9-20.16a2.045,2.045,0,0,1,2.028-1.333,2.121,2.121,0,0,1,1.8,1.745.814.814,0,0,0,.116.191Z" transform="translate(-131.955 -60.932)" fill="#161620"/>
      <path id="Path_14391" data-name="Path 14391" d="M211.316,18.745a6.249,6.249,0,0,1-.907-.136,8.325,8.325,0,0,1-1.284-.492,20.455,20.455,0,0,0-6.77-2.3,7.118,7.118,0,0,1-4.95-3.392,7.669,7.669,0,0,1,.249-9.053,8.324,8.324,0,0,1,9.01-3.085,7.9,7.9,0,0,1,4.523,2.924,7.791,7.791,0,0,1,.207,9.442c-1.664,2.345-1.7,3.527-.079,6.1" transform="translate(-160.7 0)" fill="#161620"/>
      <path id="Path_14392" data-name="Path 14392" d="M17.723,110.628c0,.305.01.612,0,.916-.024.629-.539,1.293-1.047,1.222s-1.159.411-1.536-.464c-.038-.089-.3-.042-.454-.042-2.9,0-5.8-.009-8.7.015-.206,0-.432.209-.612.38-.277.263-1.621.017-1.924-.16-.622-.363-.545-1.036-.615-1.639Q1.449,99.033.1,87.205c-.081-.711-.289-1.581.353-2.065.617-.464,1.244-.048,1.773.352A6.971,6.971,0,0,1,5,93.045c-.194,1.023-.3,2.075-.41,3.119-.333,3.276.82,5.155,3.48,5.591,1.111.182,2.24.179,3.357.313,4.015.484,6.277,3.568,6.291,8.56" transform="translate(0 -66.052)" fill="#161620"/>
      <path id="Path_14393" data-name="Path 14393" d="M44.866,78.083c-.048-.649-.759-.844-.221-1.7.08.195.147.4.242.583.3.579.62.88,1.29.784,1.084-.155,1.587,1.256,1.051,2.686l.378.956a.906.906,0,0,1-.151.1c-.536-.76-1.156-.462-1.8-.288a14.549,14.549,0,0,1-2.2.368,2.185,2.185,0,0,1-2.375-1.743,19.531,19.531,0,0,1-.569-3.377c-.059-.457.041-.942.028-1.413a1.872,1.872,0,0,0-1.42-1.914A1.669,1.669,0,0,0,37.3,74.559c-1.175,4.806,1.315,10.13,5.262,11.229a12.333,12.333,0,0,0,2.184.464c.352.031.722-.25,1.209-.438l-.263.679c.023.042.038.112.07.126,3.693,1.659,5.159,5.405,5.965,9.751a15.868,15.868,0,0,1,.216,2.313c.054,1.509-.675,2.576-1.756,2.645-1.065.068-1.888-.948-1.921-2.451a14.68,14.68,0,0,0-1.013-4.794,4.858,4.858,0,0,0-4.225-3.554,12.246,12.246,0,0,0-2.154,0c-1.756.127-2.9-.663-3.609-2.625a27.293,27.293,0,0,1-1.6-11.766,4.773,4.773,0,0,1,2.316-4.089c1.116-.6,2.132-.225,2.854,1a6.575,6.575,0,0,1,.793,3.21c.057,1.791.309,2.073,1.775,2.033a12.59,12.59,0,0,0,1.462-.2" transform="translate(-29.154 -55.81)" fill="#161620"/>
      <path id="Path_14394" data-name="Path 14394" d="M198.816,99.518c.94-1.966,1.749-3.727,2.613-5.446.781-1.556,2.142-2.361,3.222-2,1.128.377,2.084,2.127,2.065,3.931a7.8,7.8,0,0,1-.3,2.116,23.094,23.094,0,0,1-5.553,9.672,2.855,2.855,0,0,1-3.664.767A15.377,15.377,0,0,0,182.7,108.4a1.809,1.809,0,0,1-2.686-1.255,2.539,2.539,0,0,1,1.243-3.127,17.906,17.906,0,0,1,11.958-1.75,1.343,1.343,0,0,1,.244.1c.22,1.905.814,2.52,2.364,2.339,4.248-.5,7.494-2.881,9.405-7.726a8.771,8.771,0,0,0,.338-1.087,2.21,2.21,0,0,0-1.007-2.641c-.877-.382-1.776.121-2.126,1.271a8.912,8.912,0,0,1-2.884,4.485c-.18.145-.375.263-.728.51" transform="translate(-147.439 -71.535)" fill="#161620"/>
      <path id="Path_14395" data-name="Path 14395" d="M113.535,19.934c.139-.243.287-.478.415-.729a3.12,3.12,0,0,0-.288-3.422,6,6,0,0,1,.59-8.381,6.644,6.644,0,0,1,8.694-.106,5.948,5.948,0,0,1-.087,9.228,6.171,6.171,0,0,1-2.918,1.367,14.793,14.793,0,0,0-4.515,1.548c-.592.277-1.216.455-1.825.678l-.066-.183" transform="translate(-91.997 -4.455)" fill="#161620"/>
      <path id="Path_14396" data-name="Path 14396" d="M53.117,33.3c0,2.58-1.7,4.669-3.771,4.648s-3.746-2.136-3.726-4.711c.02-2.543,1.688-4.591,3.743-4.6,2.082-.006,3.759,2.075,3.754,4.661" transform="translate(-37.393 -22.273)" fill="#161620"/>
      <path id="Path_14397" data-name="Path 14397" d="M311.492,54.343c.012-2.54,1.684-4.615,3.726-4.624,2.076-.009,3.768,2.077,3.773,4.653s-1.678,4.66-3.763,4.654-3.748-2.1-3.736-4.683" transform="translate(-255.326 -38.665)" fill="#161620"/>
      <path id="Path_14398" data-name="Path 14398" d="M53.28,91.668c-5.405.038-7.33-4.6-7.126-9.716.011-.277.04-.553.073-.828.118-1,.737-1.633,1.486-1.522s1.188.913,1.176,1.912a17.957,17.957,0,0,0,.131,3.218c.448,2.6,1.989,3.828,4.4,3.636.536-.043,1.07-.151,1.6-.245a1.383,1.383,0,0,1,1.761,1.265,1.638,1.638,0,0,1-1.3,2.008,10.2,10.2,0,0,1-1.067.185c-.425.049-.852.066-1.138.087" transform="translate(-37.821 -61.894)" fill="#161620"/>
      <path id="Path_14399" data-name="Path 14399" d="M259.278,109.754a4.68,4.68,0,0,1-.69-.005,1.494,1.494,0,0,1-1.17-1.56,1.546,1.546,0,0,1,1.139-1.679,20.8,20.8,0,0,0,2.26-.417c2.616-.8,4.455-2.741,5.448-5.867.325-1.024,1.028-1.462,1.753-1.13a1.826,1.826,0,0,1,.758,2.266,9.084,9.084,0,0,1-.337,1c-1.587,4-4.213,6.3-7.713,7.15-.483.117-.977.167-1.448.245" transform="translate(-211.001 -76.979)" fill="#161620"/>
      <path id="Path_14400" data-name="Path 14400" d="M107,98.279l-3.279,4.668-.591-.773c.837-1.387,1.634-2.827,2.554-4.135.188-.268.839-.039,1.277-.039l.04.279" transform="translate(-84.537 -76.141)" fill="#161620"/>
    </g>
  </g>
</svg>
