<svg xmlns="http://www.w3.org/2000/svg" width="27.193" height="26.215" viewBox="0 0 27.193 26.215">
  <g id="Group_10934" data-name="Group 10934" transform="translate(-495.517 -310.189)">
    <path id="Path_14369" data-name="Path 14369" d="M495.517,616.423c.05-.186.095-.373.15-.557a3.378,3.378,0,0,1,3.2-2.414c1.3-.01,2.6,0,3.9,0,.078,0,.157.01.259.016-.021.09-.044.164-.054.239a11.182,11.182,0,0,0-.172,1.335c-.023,1.353,0,2.707-.012,4.06a3.116,3.116,0,0,0,.494,2.1H498.44v-5.3h-.975v5.285c-.194-.068-.353-.11-.5-.178a2.393,2.393,0,0,1-1.4-1.725,1.369,1.369,0,0,0-.052-.148Z" transform="translate(0 -284.813)" fill="#fff"/>
    <path id="Path_14370" data-name="Path 14370" d="M523.786,317.322l-1.728-1.727c-.383-.383-.381-.585.009-.974q.9-.9,1.8-1.8c.333-.331.57-.331.9,0,.581.581,1.159,1.164,1.685,1.693.8-.346,1.551-.674,2.3-.994a3.229,3.229,0,0,1,.406-.119c.415-.115.416-.115.416-.531,0-.681,0-1.363,0-2.044,0-.481.156-.635.637-.636q1.327,0,2.655,0c.428,0,.594.165.6.6,0,.761,0,1.522,0,2.283,0,.131,0,.234.17.274a9.2,9.2,0,0,1,2.8,1.172,1,1,0,0,0,.1.049l1.728-1.728c.349-.348.581-.352.923-.011q.921.918,1.839,1.84c.333.335.333.563-.007.9-.583.579-1.169,1.155-1.762,1.741a9.538,9.538,0,0,1,1.292,3.081h2.378c.61,0,.733.122.733.727q0,1.248,0,2.5c0,.505-.161.661-.674.663a.349.349,0,0,0-.053,0c-.286.046-.438-.054-.574-.338a2.87,2.87,0,0,0-3.74-1.369c-.088.038-.175.078-.295.132a6.779,6.779,0,0,0-2.952-5.966,6.531,6.531,0,0,0-4.312-1.188,6.819,6.819,0,0,0-6.344,7.11,8.722,8.722,0,0,0-1.025-.287,2.844,2.844,0,0,0-3.057,1.653.348.348,0,0,1-.413.254c-.087-.011-.177,0-.265,0-.388-.011-.572-.186-.574-.574q-.009-1.38,0-2.761c0-.38.179-.547.562-.549.84,0,1.68,0,2.547,0A9.519,9.519,0,0,1,523.786,317.322Z" transform="translate(-22.418)" fill="#fff"/>
    <path id="Path_14371" data-name="Path 14371" d="M639.861,590.825v-6.783h-.952v6.766h-4.867v-6.765h-.961v6.739a1.508,1.508,0,0,1-1.956-1.51c-.006-1.566-.01-3.133,0-4.7a3.344,3.344,0,0,1,3.258-3.437c1.378-.06,2.762-.057,4.14,0a3.342,3.342,0,0,1,3.282,3.415c.02,1.584.011,3.168,0,4.752a1.443,1.443,0,0,1-1.539,1.524Z" transform="translate(-127.355 -254.426)" fill="#fff"/>
    <path id="Path_14372" data-name="Path 14372" d="M626.407,422.048c-.88,0-1.738.005-2.6-.009-.076,0-.185-.114-.219-.2a5.647,5.647,0,0,1,.17-4.847,5.825,5.825,0,0,1,10.918,1.49,5.63,5.63,0,0,1-.355,3.375.334.334,0,0,1-.231.182c-.831.013-1.663.007-2.494.006a.526.526,0,0,1-.1-.024,2.94,2.94,0,0,0,.194-2.436,2.845,2.845,0,0,0-1.108-1.417,2.911,2.911,0,0,0-3.376.088C626.072,419.126,625.819,420.29,626.407,422.048Z" transform="translate(-119.849 -97.294)" fill="#fff"/>
    <path id="Path_14373" data-name="Path 14373" d="M814.873,621.207a3.221,3.221,0,0,0,.49-2.173c-.009-1.062,0-2.124,0-3.185a6.559,6.559,0,0,0-.258-2.37c.135-.007.235-.017.335-.017,1.256,0,2.513-.005,3.769,0a3.39,3.39,0,0,1,3.43,3.437,20.338,20.338,0,0,1-.061,2.357,2.293,2.293,0,0,1-1.87,1.9v-5.25h-.979v5.3Z" transform="translate(-299.933 -284.826)" fill="#fff"/>
    <path id="Path_14374" data-name="Path 14374" d="M822.907,527.638a1.94,1.94,0,1,1,1.948,1.931A1.937,1.937,0,0,1,822.907,527.638Z" transform="translate(-307.478 -202.391)" fill="#fff"/>
    <path id="Path_14375" data-name="Path 14375" d="M555.294,527.633a1.94,1.94,0,1,1-1.932-1.947A1.937,1.937,0,0,1,555.294,527.633Z" transform="translate(-52.498 -202.391)" fill="#fff"/>
    <path id="Path_14376" data-name="Path 14376" d="M689.074,493.806a1.94,1.94,0,1,1-1.949,1.931A1.937,1.937,0,0,1,689.074,493.806Z" transform="translate(-179.954 -172.449)" fill="#fff"/>
  </g>
</svg>
