<svg xmlns="http://www.w3.org/2000/svg" width="28.166" height="36.296" viewBox="0 0 28.166 36.296">
  <g id="Group_11254" data-name="Group 11254" transform="translate(0.5 0.515)">
    <g id="Group_11255" data-name="Group 11255" transform="translate(0 0)">
      <path id="Path_14418" data-name="Path 14418" d="M2.412,35.282a3.011,3.011,0,0,1-1.723-.926,2.919,2.919,0,0,1-.689-2Q0,23.977,0,15.6q0-3.654,0-7.308A2.628,2.628,0,0,1,1.553,5.707a3.525,3.525,0,0,1,1.329-.276c1.09-.038,2.183,0,3.274-.022A1.209,1.209,0,0,0,6.7,5.2a10.91,10.91,0,0,1,1.489-.9A2.484,2.484,0,0,0,9.746,2.74,3.954,3.954,0,0,1,14.18.047a3.873,3.873,0,0,1,3.182,2.53,2.48,2.48,0,0,0,.85,1.338,4.083,4.083,0,0,0,.741.354,4.591,4.591,0,0,1,1.54.954.784.784,0,0,0,.479.188c1.1.016,2.206,0,3.309.009a2.721,2.721,0,0,1,2.88,2.873q.005,12.048.006,24.1a2.758,2.758,0,0,1-2.321,2.853.384.384,0,0,0-.094.041ZM5.645,6.808c-1.089,0-2.155-.04-3.215.026a1.282,1.282,0,0,0-.813.556,1.812,1.812,0,0,0-.24.972q-.019,11.978-.009,23.956c0,.1,0,.207,0,.31a1.307,1.307,0,0,0,.978,1.231A2.585,2.585,0,0,0,3,33.917q10.582,0,21.164,0c.126,0,.253,0,.379-.009a1.289,1.289,0,0,0,.927-.465,1.415,1.415,0,0,0,.327-.988q0-12.116,0-24.232c0-.058,0-.115-.005-.172A1.269,1.269,0,0,0,24.63,6.806c-1.02-.045-2.042-.017-3.064-.018-.014,0-.028.031-.042.047a18.342,18.342,0,0,1,.164,3.989H5.43a18.907,18.907,0,0,1,.216-4.017M20.314,9.475A11.33,11.33,0,0,0,20.3,7.6a2.6,2.6,0,0,0-1.918-2.093,3.425,3.425,0,0,1-1.4-.846A4.225,4.225,0,0,1,16.1,3.08a2.7,2.7,0,0,0-3.571-1.518,2.723,2.723,0,0,0-1.57,1.765A3.228,3.228,0,0,1,8.8,5.5a3.072,3.072,0,0,0-.568.242C6.81,6.564,6.662,7.808,6.851,9.475Z" transform="translate(0 -0.001)" fill="#fff" stroke="#fff" stroke-width="1"/>
      <rect id="Rectangle_3091" data-name="Rectangle 3091" width="16.236" height="1.309" transform="translate(5.466 14.944)" fill="#fff" stroke="#fff" stroke-width="1"/>
      <rect id="Rectangle_3092" data-name="Rectangle 3092" width="16.237" height="1.303" transform="translate(5.46 19.021)" fill="#fff" stroke="#fff" stroke-width="1"/>
      <rect id="Rectangle_3093" data-name="Rectangle 3093" width="16.248" height="1.303" transform="translate(5.457 23.087)" fill="#fff" stroke="#fff" stroke-width="1"/>
      <rect id="Rectangle_3094" data-name="Rectangle 3094" width="8.109" height="1.308" transform="translate(5.456 27.159)" fill="#fff" stroke="#fff" stroke-width="1"/>
      <path id="Path_14419" data-name="Path 14419" d="M118.246,29.537a1.012,1.012,0,0,1,.989-1.029,1.018,1.018,0,1,1,.022,2.037,1.015,1.015,0,0,1-1.011-1.008" transform="translate(-105.652 -25.471)" fill="#fff" stroke="#fff" stroke-width="1"/>
    </g>
  </g>
</svg>
