<svg xmlns="http://www.w3.org/2000/svg" xmlns:xlink="http://www.w3.org/1999/xlink" width="45.53" height="54.369" viewBox="0 0 45.53 54.369">
  <defs>
    <filter id="Path_14426" x="9.543" y="31.883" width="25.926" height="22.487" filterUnits="userSpaceOnUse">
      <feOffset input="SourceAlpha"/>
      <feGaussianBlur stdDeviation="3" result="blur"/>
      <feFlood flood-opacity="0.161"/>
      <feComposite operator="in" in2="blur"/>
      <feComposite in="SourceGraphic"/>
    </filter>
    <filter id="Path_14427" x="0" y="2.5" width="45.06" height="45.774" filterUnits="userSpaceOnUse">
      <feOffset input="SourceAlpha"/>
      <feGaussianBlur stdDeviation="3" result="blur-2"/>
      <feFlood flood-opacity="0.161"/>
      <feComposite operator="in" in2="blur-2"/>
      <feComposite in="SourceGraphic"/>
    </filter>
  </defs>
  <g id="Group_11294" data-name="Group 11294" transform="translate(-1485.47 -39)">
    <g id="Icon_ionic-ios-notifications-outline" data-name="Icon ionic-ios-notifications-outline" transform="translate(1487.695 46.569)">
      <g transform="matrix(1, 0, 0, 1, -2.23, -7.57)" filter="url(#Path_14426)">
        <path id="Path_14426-2" data-name="Path 14426" d="M21.526,28.336a1.1,1.1,0,0,0-1.075.863,2.121,2.121,0,0,1-.423.923,1.6,1.6,0,0,1-1.363.5,1.627,1.627,0,0,1-1.363-.5,2.121,2.121,0,0,1-.423-.923,1.1,1.1,0,0,0-1.075-.863h0a1.1,1.1,0,0,0-1.075,1.346,3.782,3.782,0,0,0,3.936,3.141A3.775,3.775,0,0,0,22.6,29.682a1.108,1.108,0,0,0-1.075-1.346Z" transform="translate(3.84 12.55)"/>
      </g>
      <g transform="matrix(1, 0, 0, 1, -2.23, -7.57)" filter="url(#Path_14427)">
        <path id="Path_14427-2" data-name="Path 14427" d="M33.5,29.013c-1.3-1.718-3.869-2.726-3.869-10.421,0-7.9-3.488-11.073-6.738-11.834-.3-.076-.525-.178-.525-.5V6.013A2.076,2.076,0,0,0,20.332,3.93h-.051a2.076,2.076,0,0,0-2.032,2.082v.245c0,.313-.22.423-.525.5-3.259.77-6.738,3.936-6.738,11.834,0,7.695-2.565,8.694-3.869,10.421A1.68,1.68,0,0,0,8.463,31.7H32.174A1.682,1.682,0,0,0,33.5,29.013Zm-3.3.491H10.453a.371.371,0,0,1-.279-.618,10.255,10.255,0,0,0,1.778-2.827,19.184,19.184,0,0,0,1.211-7.466c0-3.158.593-5.629,1.769-7.348a5.432,5.432,0,0,1,3.276-2.336,2.967,2.967,0,0,0,1.575-.889A.669.669,0,0,1,20.789,8a3.067,3.067,0,0,0,1.591.906,5.432,5.432,0,0,1,3.276,2.336c1.177,1.718,1.769,4.19,1.769,7.348a19.184,19.184,0,0,0,1.211,7.466,10.372,10.372,0,0,0,1.82,2.87A.35.35,0,0,1,30.194,29.5Z" transform="translate(2.23 7.57)"/>
      </g>
    </g>
    <g id="Group_11293" data-name="Group 11293" transform="translate(2 3)">
      <circle id="Ellipse_191" data-name="Ellipse 191" cx="11.5" cy="11.5" r="11.5" transform="translate(1506 36)" fill="#ff3131"/>
      <text id="_3" data-name="3" transform="translate(1513 53)" fill="#fff" font-size="16" font-family="Poppins-Medium, Poppins" font-weight="500"><tspan x="0" y="0">3</tspan></text>
    </g>
  </g>
</svg>
