<svg id="Group_26" data-name="Group 26" xmlns="http://www.w3.org/2000/svg" width="23.156" height="24.981" viewBox="0 0 23.156 24.981">
  <path id="Path_40" data-name="Path 40" d="M28.374,23.55H21.858a3.212,3.212,0,0,1-3.208-3.208V4.639a3.212,3.212,0,0,1,3.208-3.208H28.48A.716.716,0,0,0,28.48,0H21.858a4.644,4.644,0,0,0-4.639,4.639v15.7a4.644,4.644,0,0,0,4.639,4.639h6.516a.716.716,0,0,0,0-1.431Z" transform="translate(-17.219)" fill="#fff"/>
  <path id="Path_41" data-name="Path 41" d="M137.988,141.085l-4.549-4.549a.716.716,0,0,0-1.013,1.013l3.329,3.329H121.235a.716.716,0,0,0,0,1.431h14.521l-3.329,3.329a.718.718,0,0,0,.5,1.225.7.7,0,0,0,.5-.212l4.549-4.549A.715.715,0,0,0,137.988,141.085Z" transform="translate(-115.042 -129.098)" fill="#fff"/>
</svg>
