<svg id="Group_11324" data-name="Group 11324" xmlns="http://www.w3.org/2000/svg" xmlns:xlink="http://www.w3.org/1999/xlink" width="29.111" height="29.123" viewBox="0 0 29.111 29.123">
  <defs>
    <clipPath id="clip-path">
      <rect id="Rectangle_3109" data-name="Rectangle 3109" width="29.111" height="29.123" fill="#fff"/>
    </clipPath>
  </defs>
  <g id="Group_11323" data-name="Group 11323" clip-path="url(#clip-path)">
    <path id="Path_14432" data-name="Path 14432" d="M0,246.2a7.912,7.912,0,0,1,.577-1.159,3,3,0,0,1,2.542-1.278c1.2-.012,2.392-.026,3.587.009a10.95,10.95,0,0,1,1.485.246c0-.121-.007-.3,0-.472a3.109,3.109,0,0,1,3.048-2.978q3.288-.032,6.576,0a3.1,3.1,0,0,1,3.035,2.988c.03.825.01,1.651.013,2.477,0,.1,0,.206,0,.29a7.546,7.546,0,0,1,1.281-.247c1.375-.029,2.753-.057,4.126.011a3.044,3.044,0,0,1,2.82,2.952c.032,2.031.014,4.063.008,6.094a.761.761,0,0,1-.849.808q-13.694,0-27.388.008A.884.884,0,0,1,0,255.487V246.2m19.145,8.078c0-.1.011-.162.011-.228q0-5.111,0-10.221a1.441,1.441,0,0,0-1.59-1.559q-3.017,0-6.035,0A1.46,1.46,0,0,0,9.892,243.9q0,5.039,0,10.079v.3Zm-10.986,0a1.446,1.446,0,0,0,.022-.175c0-2.372.009-4.743,0-7.115a1.439,1.439,0,0,0-1.551-1.519c-1.129-.006-2.257,0-3.386,0a1.46,1.46,0,0,0-1.589,1.6q0,3.472,0,6.944v.268Zm12.718-.008H27.4v-.3q0-2.292,0-4.583a1.464,1.464,0,0,0-1.615-1.626q-1.651,0-3.3,0a2.238,2.238,0,0,0-.562.064,1.446,1.446,0,0,0-1.05,1.536q0,2.32,0,4.64c0,.084.007.168.011.269" transform="translate(0 -226.827)" fill="#fff"/>
    <path id="Path_14433" data-name="Path 14433" d="M148.908,10.931c.14-.819.226-1.606.419-2.366a1.4,1.4,0,0,0-.519-1.665,19.655,19.655,0,0,1-1.54-1.475.88.88,0,0,1,.508-1.591c.938-.135,1.875-.28,2.815-.4a.429.429,0,0,0,.375-.281q.627-1.291,1.269-2.575A.83.83,0,0,1,153.373.09a1.292,1.292,0,0,1,.493.518c.444.847.851,1.714,1.286,2.567a.485.485,0,0,0,.3.238c.945.151,1.893.282,2.841.417a.92.92,0,0,1,.849.608.9.9,0,0,1-.321.991c-.676.652-1.342,1.315-2.022,1.962a.463.463,0,0,0-.146.476q.253,1.384.484,2.773c.1.613-.17,1.072-.7,1.118a1.281,1.281,0,0,1-.646-.152c-.846-.425-1.683-.871-2.517-1.32a.413.413,0,0,0-.445,0q-1.277.686-2.566,1.35a.847.847,0,0,1-1.194-.261,2.272,2.272,0,0,1-.155-.443m.771-5.641c.384.408.738.831,1.141,1.2a1.179,1.179,0,0,1,.376,1.227c-.113.525-.185,1.059-.284,1.644.568-.3,1.089-.563,1.6-.844a1.013,1.013,0,0,1,1.052,0c.339.189.685.365,1.029.545.177.092.356.18.579.292-.092-.554-.141-1.056-.266-1.539a1.3,1.3,0,0,1,.478-1.433c.374-.326.689-.718,1.034-1.084-.573-.086-1.161-.183-1.752-.258a.988.988,0,0,1-.821-.612c-.222-.471-.458-.936-.69-1.4a2.2,2.2,0,0,0-.128-.2c-.278.564-.541,1.089-.8,1.617a.974.974,0,0,1-.8.592c-.591.076-1.179.173-1.749.257" transform="translate(-138.521 0)" fill="#fff"/>
  </g>
</svg>
