<svg id="Group_11327" data-name="Group 11327" xmlns="http://www.w3.org/2000/svg" xmlns:xlink="http://www.w3.org/1999/xlink" width="21.851" height="29.123" viewBox="0 0 21.851 29.123">
  <defs>
    <clipPath id="clip-path">
      <rect id="Rectangle_3110" data-name="Rectangle 3110" width="21.851" height="29.123" fill="#fff"/>
    </clipPath>
  </defs>
  <g id="Group_11326" data-name="Group 11326" clip-path="url(#clip-path)">
    <path id="Path_14434" data-name="Path 14434" d="M15.361,0c.5.476,1,.945,1.492,1.43,1.559,1.551,3.108,3.111,4.669,4.659a1.047,1.047,0,0,1,.33.806q-.01,9.809-.005,19.617a2.438,2.438,0,0,1-2.611,2.61H2.6A2.436,2.436,0,0,1,0,26.529Q0,14.6,0,2.676A2.44,2.44,0,0,1,2.007.036c.016,0,.028-.024.041-.036Zm-.8,1.208H2.673c-1,0-1.463.458-1.463,1.456q0,11.9,0,23.8A1.267,1.267,0,0,0,2.65,27.914H19.2a1.261,1.261,0,0,0,1.437-1.427q0-9.44,0-18.879V7.281h-.343c-1.062,0-2.123.006-3.185,0a3.039,3.039,0,0,1-.757-.092A2.4,2.4,0,0,1,14.567,4.86c-.009-1.2,0-2.406,0-3.651m5.023,4.854L15.775,2.251c0,.816-.014,1.714,0,2.612a1.155,1.155,0,0,0,1.106,1.188c.932.04,1.867.01,2.7.01" transform="translate(0)" fill="#fff"/>
    <path id="Path_14435" data-name="Path 14435" d="M55.243,175.752h6.394c.1,0,.209,0,.312.007a.6.6,0,0,1,.553.58.609.609,0,0,1-.523.613,1.972,1.972,0,0,1-.284.008q-6.48,0-12.959,0a1.325,1.325,0,0,1-.391-.044.584.584,0,0,1-.4-.617.594.594,0,0,1,.535-.538,2.99,2.99,0,0,1,.312-.008h6.451" transform="translate(-44.3 -162.399)" fill="#fff"/>
    <path id="Path_14436" data-name="Path 14436" d="M55.217,223.668H61.64c.1,0,.209,0,.312.007a.6.6,0,0,1,.549.555.609.609,0,0,1-.5.634,1.416,1.416,0,0,1-.255.012q-6.522,0-13.044,0a1.188,1.188,0,0,1-.362-.044.585.585,0,0,1-.4-.619.6.6,0,0,1,.538-.535,3.076,3.076,0,0,1,.312-.008h6.423" transform="translate(-44.299 -206.674)" fill="#fff"/>
    <path id="Path_14437" data-name="Path 14437" d="M55.179,272.791q-3.24,0-6.48,0a1.2,1.2,0,0,1-.389-.052.584.584,0,0,1-.376-.633.6.6,0,0,1,.53-.512,2.931,2.931,0,0,1,.312-.008H61.65c.085,0,.171,0,.256,0a.6.6,0,0,1,.584.58.609.609,0,0,1-.576.621c-.085.007-.17,0-.256,0h-6.48" transform="translate(-44.287 -250.949)" fill="#fff"/>
    <path id="Path_14438" data-name="Path 14438" d="M49.105,62.673c-.209,0-.4.008-.588,0a.606.606,0,0,1-.6-.6.592.592,0,0,1,.593-.6c.369-.012.739,0,1.109-.006.437-.006.713-.238.723-.6s-.256-.595-.7-.628a1.814,1.814,0,0,1-.7-3.446.423.423,0,0,0,.182-.242c.085-.324.26-.512.541-.537a.6.6,0,0,1,.652.433.33.33,0,0,0,.217.15c.138.025.284,0,.425.012a.607.607,0,0,1,.592.607.6.6,0,0,1-.6.6c-.369.019-.739.005-1.109.008-.439,0-.714.232-.72.592s.255.591.7.619a1.818,1.818,0,0,1,.744,3.428.508.508,0,0,0-.229.271.646.646,0,0,1-.574.543.61.61,0,0,1-.622-.476c-.012-.035-.025-.07-.047-.13" transform="translate(-44.278 -51.753)" fill="#fff"/>
    <path id="Path_14439" data-name="Path 14439" d="M52.12,320.692c-1.184,0-2.368,0-3.552,0a.609.609,0,0,1-.6-.9.624.624,0,0,1,.6-.308c.9,0,1.8,0,2.7,0q2.2,0,4.4,0c.426,0,.674.2.7.541a.6.6,0,0,1-.668.665c-1.193,0-2.387,0-3.58,0" transform="translate(-44.243 -295.21)" fill="#fff"/>
    <path id="Path_14440" data-name="Path 14440" d="M132.189,127.834c1.193,0,2.387,0,3.58,0a.591.591,0,0,1,.625.6.613.613,0,0,1-.62.608c-.085,0-.17,0-.256,0h-6.592c-.123,0-.246,0-.369,0a.6.6,0,0,1-.648-.6.583.583,0,0,1,.643-.6c1.212-.005,2.425,0,3.637,0" transform="translate(-118.191 -118.12)" fill="#fff"/>
  </g>
</svg>
