<svg xmlns="http://www.w3.org/2000/svg" width="36.836" height="35.061" viewBox="0 0 36.836 35.061">
  <g id="Group_10447" data-name="Group 10447" transform="translate(832.301 -36.15)">
    <path id="Path_14360" data-name="Path 14360" d="M-825.29,60.687c-.849,0-1.628,0-2.407,0a4.382,4.382,0,0,1-4.6-4.628q0-7.725,0-15.449a4.356,4.356,0,0,1,3.624-4.389,5.329,5.329,0,0,1,.981-.067q11.178-.005,22.356,0a4.354,4.354,0,0,1,4.475,3.361,5.11,5.11,0,0,1,.127,1.179q.012,7.725,0,15.449a4.36,4.36,0,0,1-4.518,4.543q-5.938.018-11.877,0a.913.913,0,0,0-.715.3q-2.182,2.206-4.386,4.389a1.742,1.742,0,0,1-2.347.232,1.793,1.793,0,0,1-.717-1.538q0-1.438,0-2.876Zm8.792-19.3c-.324.046-.654.067-.971.142a3.943,3.943,0,0,0-2.935,3.239.877.877,0,0,0,.694,1.008.869.869,0,0,0,1-.643c.032-.1.045-.214.072-.32a2.2,2.2,0,0,1,2.549-1.613,2.164,2.164,0,0,1,1.729,2.494,2.292,2.292,0,0,1-1.214,1.657,3.645,3.645,0,0,0-1.813,3.758.873.873,0,0,0,.873.818.881.881,0,0,0,.867-.824,5.08,5.08,0,0,0,.013-.656,1.729,1.729,0,0,1,.8-1.49c.144-.1.3-.188.451-.284a3.961,3.961,0,0,0,1.644-4.487A3.959,3.959,0,0,0-816.5,41.385Zm-.022,14.035a.871.871,0,0,0,.883-.879.887.887,0,0,0-.871-.858.885.885,0,0,0-.882.886A.87.87,0,0,0-816.521,55.42Z" fill="#fcfcfc"/>
    <path id="Path_14361" data-name="Path 14361" d="M-701.471,85.163a4.3,4.3,0,0,1,3.433,3.45,4.955,4.955,0,0,1,.078.816q.007,7.869,0,15.739a4.315,4.315,0,0,1-3.711,4.349,19.816,19.816,0,0,1-2.5.062c-.244,0-.488,0-.769,0-.009.182-.021.328-.021.473,0,.931,0,1.863,0,2.794a1.792,1.792,0,0,1-1.122,1.873,1.808,1.808,0,0,1-2.044-.547c-1.393-1.416-2.812-2.807-4.2-4.223a1.13,1.13,0,0,0-.891-.378c-3,.016-6,.009-9,.009h-.536c.12-.14.187-.229.264-.307.968-.97,1.942-1.932,2.9-2.911a.866.866,0,0,1,.682-.282c3.726.009,7.453.024,11.179,0a6.032,6.032,0,0,0,5.623-3.41,6.091,6.091,0,0,0,.646-2.936q-.013-7.027,0-14.054Z" transform="translate(-97.511 -43.631)" fill="#fcfcfc"/>
  </g>
</svg>
