<svg xmlns="http://www.w3.org/2000/svg" xmlns:xlink="http://www.w3.org/1999/xlink" width="27.021" height="29.25" viewBox="0 0 27.021 29.25">
  <defs>
    <clipPath id="clip-path">
      <rect id="Rectangle_3106" data-name="Rectangle 3106" width="27.021" height="29.25" fill="#fff"/>
    </clipPath>
  </defs>
  <g id="Group_11304" data-name="Group 11304" clip-path="url(#clip-path)">
    <path id="Path_14430" data-name="Path 14430" d="M23.312,29.251,20.426,26.4l-2.1,2.111-.955-3.539a12.848,12.848,0,0,1-9.987-.445,12.556,12.556,0,0,1-6.1-6.051A12.88,12.88,0,0,1,20.6,2.569a12.641,12.641,0,0,1,4.956,8.037,12.81,12.81,0,0,1-1.835,9.262l2.456.664-2.09,2.078,2.937,2.928c-.092.1-.159.174-.23.245q-1.615,1.616-3.23,3.232a2.848,2.848,0,0,0-.192.237Zm-3.786-10.53a.724.724,0,0,0,.119.061c.706.191,1.415.375,2.119.572.17.048.235-.035.316-.155a10.938,10.938,0,0,0,1.856-7.81,10.769,10.769,0,0,0-3.98-7.123A10.817,10.817,0,0,0,10.837,1.92,10.821,10.821,0,0,0,4.551,5.479a10.959,10.959,0,0,0-2.82,7,10.8,10.8,0,0,0,1.209,5.454,11.158,11.158,0,0,0,11.44,6,10.974,10.974,0,0,0,2.54-.657l-.608-2.253a8.856,8.856,0,0,1-4.394.634,8.842,8.842,0,0,1-6.972-4.913A8.829,8.829,0,0,1,18.586,6.142a8.59,8.59,0,0,1,3.046,5.549,8.753,8.753,0,0,1-2.106,7.03m-4.111-1.073c.7.186,1.34.362,1.985.523a.375.375,0,0,0,.3-.055,6.6,6.6,0,0,0,1.947-3,6.86,6.86,0,0,0-1.589-7.095,6.722,6.722,0,0,0-6.844-2.039A7.111,7.111,0,0,0,13,20a6.986,6.986,0,0,0,2.859-.654l-.444-1.7m5.023,6.236,2.86,2.868L24.562,25.5l-2.888-2.862,1.236-1.208-5.076-1.358,1.369,5.1,1.235-1.288" transform="translate(0 -0.001)" fill="#fff"/>
    <path id="Path_14431" data-name="Path 14431" d="M155.145,150.585a4.521,4.521,0,1,1-4.517-4.533,4.54,4.54,0,0,1,4.517,4.533m-1.717-.047a2.8,2.8,0,1,0-2.762,2.838,2.84,2.84,0,0,0,2.762-2.838" transform="translate(-137.74 -137.692)" fill="#fff"/>
  </g>
</svg>
