<svg xmlns="http://www.w3.org/2000/svg" width="29.013" height="29.112" viewBox="0 0 29.013 29.112">
  <g id="Group_10935" data-name="Group 10935" transform="translate(-28.487 -729.48)">
    <path id="Path_14377" data-name="Path 14377" d="M134.192,729.48c.2.048.4.092.6.146a4.338,4.338,0,0,1,2.117,7.088c-.076.085-.155.167-.235.247q-2.613,2.613-5.227,5.226a.889.889,0,0,1-1.447,0c-1.776-1.775-3.567-3.536-5.323-5.331a4.329,4.329,0,0,1,1.977-7.229c.2-.053.4-.1.6-.146h1.024c.516.173,1.046.313,1.543.529a6.38,6.38,0,0,1,.93.607,4.339,4.339,0,0,1,1.845-1c.19-.05.382-.091.573-.136ZM130.745,740.5c.331-.339.639-.661.953-.976,1.311-1.316,2.642-2.612,3.928-3.95a2.6,2.6,0,0,0-.07-3.6,2.627,2.627,0,0,0-3.6-.133c-.171.15-.329.313-.491.474a.894.894,0,0,1-1.467.009c-.161-.16-.319-.325-.489-.475a2.629,2.629,0,0,0-3.563,3.866c1.541,1.554,3.094,3.1,4.642,4.644C130.623,740.394,130.667,740.429,130.745,740.5Z" transform="translate(-87.728)" fill="#fff"/>
    <path id="Path_14378" data-name="Path 14378" d="M33.611,769.4a2.61,2.61,0,0,1,2.256-.418,2.555,2.555,0,0,1,1.135.673c1.648,1.648,3.3,3.29,4.939,4.951.389.395.71.856,1.081,1.308a2.3,2.3,0,0,1,.149-.228c.334-.41.644-.846,1.014-1.221,1.563-1.586,3.144-3.154,4.72-4.728a2.548,2.548,0,0,1,3.359-.406,1.133,1.133,0,0,0,.112.047v-.316c0-2.35-.006-4.7,0-7.05a2.556,2.556,0,0,1,5.111-.061c.017,1.6,0,3.2.005,4.8q0,2.8,0,5.6a6.525,6.525,0,0,1-1.535,4.294q-1.8,2.167-3.6,4.323a2.22,2.22,0,0,0-.552,1.509c.011.947,0,1.9,0,2.843a.865.865,0,0,1-.955.948q-7.861,0-15.722,0a.865.865,0,0,1-.951-.952c0-.957-.006-1.914,0-2.871a2.138,2.138,0,0,0-.517-1.436c-1.155-1.381-2.293-2.776-3.463-4.144a6.9,6.9,0,0,1-1.714-4.688c.02-3.383,0-6.766.008-10.148a2.557,2.557,0,1,1,5.114-.017c.009,2.34,0,4.681,0,7.021Zm8.53,15.153v-.335c0-1.62-.008-3.241,0-4.861a4.921,4.921,0,0,0-1.517-3.671q-2.371-2.353-4.726-4.722a1.793,1.793,0,0,0-.207-.194.823.823,0,0,0-.884-.1.812.812,0,0,0-.486.744.941.941,0,0,0,.339.722q1.653,1.644,3.3,3.3a.852.852,0,1,1-1.2,1.2c-1.229-1.223-2.46-2.446-3.675-3.682a3.975,3.975,0,0,1-1.127-2.338,5.9,5.9,0,0,1-.046-.736q0-3.895,0-7.789a.889.889,0,0,0-.408-.823.791.791,0,0,0-.862-.018.88.88,0,0,0-.439.833q0,5.146,0,10.291a4.862,4.862,0,0,0,1.167,3.213q1.7,2.04,3.4,4.084a6.984,6.984,0,0,1,.637.869,3.577,3.577,0,0,1,.483,1.874c0,.708,0,1.415,0,2.134Zm7.962,0c0-.711.006-1.393,0-2.074a3.829,3.829,0,0,1,.933-2.584c1.188-1.415,2.363-2.841,3.551-4.256a5,5,0,0,0,1.206-3.343c-.009-2.549,0-5.1,0-7.647q0-1.308,0-2.615a.834.834,0,0,0-.535-.828.851.851,0,0,0-1.169.857c0,2.606-.008,5.212,0,7.818a4.374,4.374,0,0,1-1.349,3.263c-.957.946-1.9,1.9-2.856,2.853-.228.228-.448.464-.686.681a.848.848,0,0,1-1.394-.327.875.875,0,0,1,.263-.954q1.624-1.612,3.235-3.238a1.367,1.367,0,0,0,.332-.513.808.808,0,0,0-.4-.945.844.844,0,0,0-1.062.181c-1.657,1.654-3.318,3.3-4.962,4.969a4.644,4.644,0,0,0-1.362,3.361c-.006,1.7,0,3.393,0,5.089,0,.082.009.164.015.256Z" transform="translate(0 -27.683)" fill="#fff"/>
  </g>
</svg>
