<svg xmlns="http://www.w3.org/2000/svg" width="18.625" height="14.9" viewBox="0 0 18.625 14.9">
  <path id="Icon_awesome-user-check" data-name="Icon awesome-user-check" d="M6.519,7.45A3.725,3.725,0,1,0,2.794,3.725,3.725,3.725,0,0,0,6.519,7.45Zm2.607.931H8.64a5.066,5.066,0,0,1-4.243,0H3.911A3.912,3.912,0,0,0,0,12.292V13.5a1.4,1.4,0,0,0,1.4,1.4H11.641a1.4,1.4,0,0,0,1.4-1.4V12.292A3.912,3.912,0,0,0,9.126,8.381Zm9.4-3.737-.809-.818a.345.345,0,0,0-.489,0l-3.05,3.027L12.854,5.518a.345.345,0,0,0-.489,0l-.818.812a.345.345,0,0,0,0,.489l2.378,2.4a.345.345,0,0,0,.489,0l4.112-4.08a.348.348,0,0,0,0-.489Z" fill="#f9a521"/>
</svg>
