<svg id="Icon_ionic-ios-calendar" data-name="Icon ionic-ios-calendar" xmlns="http://www.w3.org/2000/svg" width="24.812" height="22.903" viewBox="0 0 24.812 22.903">
  <path id="Path_813" data-name="Path 813" d="M25.8,6.75H23.415V8.181a.479.479,0,0,1-.477.477h-.954a.479.479,0,0,1-.477-.477V6.75H10.055V8.181a.479.479,0,0,1-.477.477H8.624a.479.479,0,0,1-.477-.477V6.75H5.761A2.393,2.393,0,0,0,3.375,9.136V25.359a2.393,2.393,0,0,0,2.386,2.386H25.8a2.393,2.393,0,0,0,2.386-2.386V9.136A2.393,2.393,0,0,0,25.8,6.75Zm.477,17.893a1.2,1.2,0,0,1-1.193,1.193H6.476a1.2,1.2,0,0,1-1.193-1.193V13.907a.479.479,0,0,1,.477-.477H25.8a.479.479,0,0,1,.477.477Z" transform="translate(-3.375 -4.841)" fill="#fff"/>
  <path id="Path_814" data-name="Path 814" d="M10.909,4.977a.479.479,0,0,0-.477-.477H9.477A.479.479,0,0,0,9,4.977V6.409h1.909Z" transform="translate(-4.229 -4.5)" fill="#fff"/>
  <path id="Path_815" data-name="Path 815" d="M26.659,4.977a.479.479,0,0,0-.477-.477h-.954a.479.479,0,0,0-.477.477V6.409h1.909Z" transform="translate(-6.619 -4.5)" fill="#fff"/>
</svg>
