<svg xmlns="http://www.w3.org/2000/svg" width="39.93" height="27.644" viewBox="0 0 39.93 27.644">
  <g id="Icon_ionic-ios-mail" data-name="Icon ionic-ios-mail" transform="translate(-3.375 -7.875)">
    <path id="Path_14363" data-name="Path 14363" d="M42.978,10.373,32.65,20.893a.186.186,0,0,0,0,.269l7.228,7.7a1.246,1.246,0,0,1,0,1.766,1.251,1.251,0,0,1-1.766,0l-7.2-7.669a.2.2,0,0,0-.278,0l-1.757,1.785a7.728,7.728,0,0,1-5.51,2.323,7.883,7.883,0,0,1-5.625-2.39l-1.689-1.718a.2.2,0,0,0-.278,0l-7.2,7.669a1.251,1.251,0,0,1-1.766,0,1.246,1.246,0,0,1,0-1.766l7.228-7.7a.2.2,0,0,0,0-.269L3.7,10.373a.189.189,0,0,0-.326.134V31.557a3.081,3.081,0,0,0,3.072,3.072H40.233A3.081,3.081,0,0,0,43.3,31.557V10.507A.192.192,0,0,0,42.978,10.373Z" transform="translate(0 0.89)" fill="#fff"/>
    <path id="Path_14364" data-name="Path 14364" d="M23.029,25.45a5.218,5.218,0,0,0,3.753-1.574L41.842,8.547a3.017,3.017,0,0,0-1.9-.672H6.126a3,3,0,0,0-1.9.672l15.06,15.329A5.219,5.219,0,0,0,23.029,25.45Z" transform="translate(0.311)" fill="#fff"/>
  </g>
</svg>
