<svg xmlns="http://www.w3.org/2000/svg" width="29.111" height="29.111" viewBox="0 0 29.111 29.111">
  <path id="Icon_metro-question" data-name="Icon metro-question" d="M15.307,21.942h3.639V25.58H15.307ZM22.584,9.206A1.819,1.819,0,0,1,24.4,11.025v5.458l-5.458,3.639H15.307V18.3l5.458-3.639V12.844h-9.1V9.206ZM17.126,4.657a11.826,11.826,0,1,0,8.362,3.464,11.749,11.749,0,0,0-8.362-3.464Zm0-2.729A14.555,14.555,0,1,1,2.571,16.483,14.555,14.555,0,0,1,17.126,1.928Z" transform="translate(-2.571 -1.928)" fill="#fff"/>
</svg>
