<svg xmlns="http://www.w3.org/2000/svg" width="19.703" height="17.515" viewBox="0 0 19.703 17.515">
  <path id="Icon_awesome-file-export" data-name="Icon awesome-file-export" d="M13.137,4.17a.818.818,0,0,0-.239-.578L9.548.239A.82.82,0,0,0,8.966,0H8.758V4.379h4.379Zm6.4,6.366-3.274-3.3a.549.549,0,0,0-.937.387V9.852H13.133v2.189h2.189v2.23a.549.549,0,0,0,.937.387l3.274-3.3A.582.582,0,0,0,19.534,10.537Zm-12.966.958V10.4a.549.549,0,0,1,.547-.547h6.021V5.474H8.484a.823.823,0,0,1-.821-.821V0H.821A.819.819,0,0,0,0,.821V16.694a.819.819,0,0,0,.821.821H12.316a.819.819,0,0,0,.821-.821V12.042H7.116A.549.549,0,0,1,6.568,11.494Z" fill="#fff"/>
</svg>
