<svg xmlns="http://www.w3.org/2000/svg" width="32.972" height="29.303" viewBox="0 0 32.972 29.303">
  <path id="Icon_awesome-edit" data-name="Icon awesome-edit" d="M23.046,4.764l5.163,5.163a.56.56,0,0,1,0,.79l-12.5,12.5-5.312.59a1.113,1.113,0,0,1-1.231-1.231l.59-5.312,12.5-12.5A.56.56,0,0,1,23.046,4.764Zm9.273-1.311L29.526.66a2.239,2.239,0,0,0-3.16,0L24.34,2.686a.56.56,0,0,0,0,.79L29.5,8.639a.56.56,0,0,0,.79,0l2.026-2.026a2.239,2.239,0,0,0,0-3.16ZM21.981,19.819v5.827H3.664V7.328H16.818a.7.7,0,0,0,.487-.2l2.29-2.29a.687.687,0,0,0-.487-1.173H2.748A2.748,2.748,0,0,0,0,6.413v20.15A2.748,2.748,0,0,0,2.748,29.31H22.9a2.748,2.748,0,0,0,2.748-2.748V17.529a.688.688,0,0,0-1.173-.487l-2.29,2.29A.7.7,0,0,0,21.981,19.819Z" transform="translate(0 -0.007)" fill="#4e4e4e" opacity="0.61"/>
</svg>
