<svg xmlns="http://www.w3.org/2000/svg" width="46.174" height="46.17" viewBox="0 0 46.174 46.17">
  <path id="Icon_ionic-ios-call" data-name="Icon ionic-ios-call" d="M49.33,40.655a38.783,38.783,0,0,0-8.1-5.421c-2.428-1.166-3.318-1.142-5.036.1-1.43,1.034-2.356,2-4,1.635s-4.892-2.813-8.041-5.95-5.6-6.395-5.95-8.041.613-2.572,1.635-4c1.238-1.719,1.274-2.608.1-5.036a38.016,38.016,0,0,0-5.421-8.1C12.741,4.066,12.344,4.45,11.371,4.8A17.852,17.852,0,0,0,8.5,6.325a8.666,8.666,0,0,0-3.45,3.642C4.363,11.446,3.57,14.2,7.608,21.387a63.718,63.718,0,0,0,11.2,14.941h0l.012.012.012.012h0a63.966,63.966,0,0,0,14.941,11.2c7.188,4.039,9.941,3.245,11.419,2.56a8.519,8.519,0,0,0,3.642-3.45,17.852,17.852,0,0,0,1.527-2.873C50.713,42.818,51.109,42.422,49.33,40.655Z" transform="translate(-4.49 -4.502)" fill="#fff"/>
</svg>
