<svg xmlns="http://www.w3.org/2000/svg" width="28.188" height="19.233" viewBox="0 0 28.188 19.233">
  <g id="Icon_View" data-name="Icon/View" opacity="0.3">
    <path id="View" d="M14.124,19.233a14.772,14.772,0,0,1-8.6-2.675A15.061,15.061,0,0,1,0,9.616,15.07,15.07,0,0,1,5.529,2.674,14.786,14.786,0,0,1,14.124,0a14.651,14.651,0,0,1,8.565,2.674,15.136,15.136,0,0,1,5.5,6.942,15.121,15.121,0,0,1-5.5,6.942A14.637,14.637,0,0,1,14.124,19.233Zm0-16.048A6.213,6.213,0,0,0,9.587,5.079,6.21,6.21,0,0,0,7.694,9.616a6.212,6.212,0,0,0,1.893,4.538,6.213,6.213,0,0,0,4.538,1.894,6.115,6.115,0,0,0,4.507-1.894,6.265,6.265,0,0,0,1.862-4.538,6.263,6.263,0,0,0-1.862-4.536A6.115,6.115,0,0,0,14.124,3.185Zm-.03,10.278a3.693,3.693,0,0,1-2.7-1.112,3.733,3.733,0,0,1-1.112-2.735A3.732,3.732,0,0,1,11.39,6.882a3.693,3.693,0,0,1,2.7-1.112,3.8,3.8,0,0,1,2.735,1.112A3.679,3.679,0,0,1,17.97,9.616a3.681,3.681,0,0,1-1.141,2.735A3.8,3.8,0,0,1,14.094,13.463Z" transform="translate(0 0)" fill="#161620"/>
  </g>
</svg>
