<svg xmlns="http://www.w3.org/2000/svg" width="22.742" height="30.322" viewBox="0 0 22.742 30.322">
  <path id="Icon_awesome-file-invoice" data-name="Icon awesome-file-invoice" d="M17.056,15.161H5.685v3.79H17.056Zm5.271-8.943-5.8-5.8A1.42,1.42,0,0,0,15.522,0h-.361V7.581h7.581V7.219A1.417,1.417,0,0,0,22.327,6.218ZM13.266,8.054V0H1.421A1.418,1.418,0,0,0,0,1.421V28.9a1.418,1.418,0,0,0,1.421,1.421h19.9A1.418,1.418,0,0,0,22.742,28.9V9.476H14.687A1.426,1.426,0,0,1,13.266,8.054ZM3.79,4.264a.474.474,0,0,1,.474-.474H9a.474.474,0,0,1,.474.474v.948A.474.474,0,0,1,9,5.685H4.264a.474.474,0,0,1-.474-.474Zm0,3.79a.474.474,0,0,1,.474-.474H9a.474.474,0,0,1,.474.474V9A.474.474,0,0,1,9,9.476H4.264A.474.474,0,0,1,3.79,9Zm15.161,18a.474.474,0,0,1-.474.474H13.74a.474.474,0,0,1-.474-.474v-.948a.474.474,0,0,1,.474-.474h4.738a.474.474,0,0,1,.474.474Zm0-11.845V19.9a.947.947,0,0,1-.948.948H4.738A.947.947,0,0,1,3.79,19.9V14.214a.947.947,0,0,1,.948-.948H18A.947.947,0,0,1,18.951,14.214Z" fill="#fff"/>
</svg>
