<svg xmlns="http://www.w3.org/2000/svg" width="23.916" height="23.916" viewBox="0 0 23.916 23.916">
  <path id="Icon_awesome-check-square" data-name="Icon awesome-check-square" d="M21.354,26.166H2.562A2.562,2.562,0,0,1,0,23.6V4.812A2.562,2.562,0,0,1,2.562,2.25H21.354a2.562,2.562,0,0,1,2.562,2.562V23.6A2.562,2.562,0,0,1,21.354,26.166ZM10.427,20.931l9.823-9.823a.854.854,0,0,0,0-1.208L19.041,8.693a.854.854,0,0,0-1.208,0L9.823,16.7l-3.74-3.74a.854.854,0,0,0-1.208,0L3.667,14.171a.854.854,0,0,0,0,1.208l5.552,5.552a.854.854,0,0,0,1.208,0Z" transform="translate(0 -2.25)" fill="#fff"/>
</svg>
