<svg xmlns="http://www.w3.org/2000/svg" width="108.011" height="144.881" viewBox="0 0 108.011 144.881">
  <path id="Path_1130" data-name="Path 1130" d="M1738.388,0h5.625c2.3.391,4.632.654,6.9,1.193a42.127,42.127,0,0,1,32.223,40.138c.061,3.818.033,7.638.053,11.457,0,.494.041.987.065,1.541,2.752,0,5.328,0,7.9,0,3.028,0,4.049,1.027,4.049,4.074q0,36.78,0,73.561c0,7.805-5.094,12.91-12.872,12.912q-41.13.007-82.26,0c-7.779,0-12.87-5.106-12.872-12.912q-.009-36.78,0-73.561c0-3.047,1.021-4.071,4.049-4.074,2.609,0,5.219,0,7.971,0,0-3.827.023-7.494-.005-11.161A41.96,41.96,0,0,1,1704,22.76a41.235,41.235,0,0,1,25.739-21.065C1732.55.88,1735.5.552,1738.388,0m26.794,54.252c0-3.649.064-7.223-.024-10.794a32.127,32.127,0,0,0-.565-6.312,23.916,23.916,0,0,0-47.3,3.869c-.122,4.147-.053,8.3-.062,12.449a5.316,5.316,0,0,0,.11.787Zm-24.079,66.5c1.78,0,3.561.019,5.341,0,2.792-.037,3.987-1.469,3.667-4.236q-.9-7.719-1.692-15.45a1.761,1.761,0,0,1,.508-1.291,12.046,12.046,0,0,0,4.132-10.729c-.665-6.847-7.973-12.013-14.609-10.209a12.1,12.1,0,0,0-5.02,20.9,1.917,1.917,0,0,1,.537,1.409c-.522,5.154-1.1,10.3-1.686,15.451-.305,2.677.9,4.107,3.62,4.151,1.733.028,3.467.005,5.2.005" transform="translate(-1687.196)" fill="#57b472"/>
</svg>
