<svg xmlns="http://www.w3.org/2000/svg" xmlns:xlink="http://www.w3.org/1999/xlink" width="86.295" height="11.768" viewBox="0 0 86.295 11.768">
  <defs>
    <clipPath id="clip-path">
      <rect width="86.295" height="11.768" fill="none"/>
    </clipPath>
  </defs>
  <g id="Repeat_Grid_37" data-name="Repeat Grid 37" clip-path="url(#clip-path)">
    <g transform="translate(-549.362 -1642.034)">
      <path id="Icon_awesome-star" data-name="Icon awesome-star" d="M6.929.408l-1.5,3.043-3.358.49A.736.736,0,0,0,1.664,5.2L4.093,7.563l-.575,3.344a.735.735,0,0,0,1.066.774l3-1.579,3,1.579a.736.736,0,0,0,1.066-.774l-.575-3.344L13.513,5.2a.736.736,0,0,0-.407-1.255l-3.358-.49L8.248.408a.736.736,0,0,0-1.319,0Z" transform="translate(547.92 1642.034)" fill="#ebce59"/>
    </g>
    <g transform="translate(-531.362 -1642.034)">
      <path id="Icon_awesome-star-2" data-name="Icon awesome-star" d="M6.929.408l-1.5,3.043-3.358.49A.736.736,0,0,0,1.664,5.2L4.093,7.563l-.575,3.344a.735.735,0,0,0,1.066.774l3-1.579,3,1.579a.736.736,0,0,0,1.066-.774l-.575-3.344L13.513,5.2a.736.736,0,0,0-.407-1.255l-3.358-.49L8.248.408a.736.736,0,0,0-1.319,0Z" transform="translate(547.92 1642.034)" fill="#ebce59"/>
    </g>
    <g transform="translate(-513.362 -1642.034)">
      <path id="Icon_awesome-star-3" data-name="Icon awesome-star" d="M6.929.408l-1.5,3.043-3.358.49A.736.736,0,0,0,1.664,5.2L4.093,7.563l-.575,3.344a.735.735,0,0,0,1.066.774l3-1.579,3,1.579a.736.736,0,0,0,1.066-.774l-.575-3.344L13.513,5.2a.736.736,0,0,0-.407-1.255l-3.358-.49L8.248.408a.736.736,0,0,0-1.319,0Z" transform="translate(547.92 1642.034)" fill="#ebce59"/>
    </g>
    <g transform="translate(-495.362 -1642.034)">
      <path id="Icon_awesome-star-4" data-name="Icon awesome-star" d="M6.929.408l-1.5,3.043-3.358.49A.736.736,0,0,0,1.664,5.2L4.093,7.563l-.575,3.344a.735.735,0,0,0,1.066.774l3-1.579,3,1.579a.736.736,0,0,0,1.066-.774l-.575-3.344L13.513,5.2a.736.736,0,0,0-.407-1.255l-3.358-.49L8.248.408a.736.736,0,0,0-1.319,0Z" transform="translate(547.92 1642.034)" fill="#ebce59"/>
    </g>
    <g transform="translate(-477.362 -1642.034)">
      <path id="Icon_awesome-star-5" data-name="Icon awesome-star" d="M6.929.408l-1.5,3.043-3.358.49A.736.736,0,0,0,1.664,5.2L4.093,7.563l-.575,3.344a.735.735,0,0,0,1.066.774l3-1.579,3,1.579a.736.736,0,0,0,1.066-.774l-.575-3.344L13.513,5.2a.736.736,0,0,0-.407-1.255l-3.358-.49L8.248.408a.736.736,0,0,0-1.319,0Z" transform="translate(547.92 1642.034)" fill="#ebce59"/>
    </g>
  </g>
</svg>
