<svg xmlns="http://www.w3.org/2000/svg" width="46.918" height="37.536" viewBox="0 0 46.918 37.536">
  <path id="Shape" d="M42.228,37.536H4.69A4.7,4.7,0,0,1,0,32.842V11.73A4.7,4.7,0,0,1,4.69,7.038h5.631A2.091,2.091,0,0,0,12.176,5.7L13.63,1.335A2.085,2.085,0,0,1,15.481,0H31.436a2.085,2.085,0,0,1,1.851,1.335L34.742,5.7A2.087,2.087,0,0,0,36.6,7.038h5.631a4.7,4.7,0,0,1,4.69,4.692V32.842A4.7,4.7,0,0,1,42.228,37.536ZM23.458,9.384A11.729,11.729,0,1,0,35.19,21.112,11.742,11.742,0,0,0,23.458,9.384Zm17.125,2.343a1.642,1.642,0,1,0,1.644,1.642A1.644,1.644,0,0,0,40.584,11.727ZM23.458,28.152a7.039,7.039,0,1,1,7.038-7.04A7.046,7.046,0,0,1,23.458,28.152Z" fill="#fff"/>
</svg>
