<svg xmlns="http://www.w3.org/2000/svg" width="36.305" height="52.856" viewBox="0 0 36.305 52.856">
  <g id="Group_9446" data-name="Group 9446" transform="translate(1743.013 -270.032)">
    <path id="Path_839" data-name="Path 839" d="M-1741.166,433.5c.136-.857.2-1.664.4-2.434a12.565,12.565,0,0,1,6.108-7.736,18.824,18.824,0,0,1,11.066-2.556,17.716,17.716,0,0,1,10.552,4,11.256,11.256,0,0,1,4.386,8.327,1.72,1.72,0,0,0,.036.259.72.72,0,0,0,.085.142c.278,0,.59-.009.9,0a.827.827,0,0,1,.914.913c.017.629.015,1.26,0,1.889-.013.568-.248.867-.8.921a3.68,3.68,0,0,0-3.329,2.762,11.626,11.626,0,0,0-.555,1.738,3.291,3.291,0,0,0,.787,2.684.872.872,0,0,1-.077,1.379q-1.348,1.361-2.709,2.709c-.493.488-.817.5-1.375.065a3.564,3.564,0,0,0-3.843-.472c-.354.149-.714.285-1.065.439a3.479,3.479,0,0,0-2.24,3.038.827.827,0,0,1-.947.877q-1.994.011-3.989,0a.8.8,0,0,1-.918-.8,3.664,3.664,0,0,0-2.674-3.285,13.842,13.842,0,0,0-1.631-.553,3.239,3.239,0,0,0-2.757.679c-.718.551-.967.53-1.614-.116q-1.3-1.3-2.6-2.6a.849.849,0,0,1-.076-1.334,3.574,3.574,0,0,0,.47-3.934q-.187-.433-.362-.87a3.522,3.522,0,0,0-3-2.372c-.79-.1-.988-.341-.993-1.127,0-.542-.007-1.085,0-1.627.011-.7.293-.987.985-1C-1741.744,433.5-1741.465,433.5-1741.166,433.5Zm5.675,13.416a4.693,4.693,0,0,1,3.5-.76,13.8,13.8,0,0,1,2.379.778,5.074,5.074,0,0,1,3.286,3.546.4.4,0,0,0,.48.345c.629-.017,1.261-.021,1.889,0a.479.479,0,0,0,.578-.427,4.358,4.358,0,0,1,1.79-2.639c2.307-1.485,4.716-2.437,7.34-.875l1.894-1.89a10.992,10.992,0,0,1-.632-1.861,7.213,7.213,0,0,1,2-6,8.069,8.069,0,0,1,2.107-1.305,2.6,2.6,0,0,1,.5-.167c-.008-.174-.016-.325-.023-.473a.9.9,0,0,0-.181-.043c-3.026.014-6.053.034-9.08.04-.332,0-.341.195-.386.432a6.981,6.981,0,0,1-6.551,5.654,6.975,6.975,0,0,1-6.905-4.935c-.114-.375-.125-.9-.379-1.081-.271-.193-.773-.065-1.175-.068q-3.989-.026-7.978-.045a2.012,2.012,0,0,0-.313.051l.022.5a4.748,4.748,0,0,1,2.6,1.419,8.232,8.232,0,0,1,2.086,4.98,4.825,4.825,0,0,1-.812,2.877Zm12.616-24.435c.017.177.017.281.038.38.321,1.557.64,3.114.97,4.669a3.634,3.634,0,0,1-2.426,3.891c-1.306.333-3.282-1.045-3.613-2.543a2.37,2.37,0,0,1-.025-.93c.323-1.681.676-3.357,1.016-5.034.025-.126.029-.256.044-.4a2.788,2.788,0,0,0-.305,0,16.6,16.6,0,0,0-6.837,2.342,10.944,10.944,0,0,0-5.171,6.66c-.159.628-.2,1.284-.3,1.954h29.2a8.741,8.741,0,0,0-.656-3.253,11.067,11.067,0,0,0-4.117-4.916A16.663,16.663,0,0,0-1722.875,422.486Zm-7.159,12.727a5.251,5.251,0,0,0,5.57,4.4c2.41-.177,4.822-2.413,4.726-4.4Zm6.646-6.812c-.015-.129-.017-.164-.023-.2-.381-1.844-.758-3.689-1.153-5.529-.023-.111-.207-.281-.282-.265a.479.479,0,0,0-.322.285c-.331,1.516-.562,3.058-.981,4.548a1.958,1.958,0,0,0,.731,2.319c.448.36.67.4,1.076.012.251-.242.5-.488.727-.753A1.955,1.955,0,0,0-1723.388,428.4Z" transform="translate(0 -129.568)"/>
    <path id="Path_840" data-name="Path 840" d="M-1664.477,270.032a11.872,11.872,0,0,1,5.23,1.236,6.39,6.39,0,0,1,3.491,6.115,10.946,10.946,0,0,1-.926,4.115,2.621,2.621,0,0,0-.2.9,7.924,7.924,0,0,1-5.961,7.643,7.5,7.5,0,0,1-9.125-6.7,8.158,8.158,0,0,0-.529-2.532,8.829,8.829,0,0,1-.479-5.3c.675-2.857,2.688-4.361,5.4-5.03A30.832,30.832,0,0,1-1664.477,270.032Zm.017,8.411c-1.452,0-2.9-.008-4.355,0a1.376,1.376,0,0,0-1.524,1.279,20.817,20.817,0,0,0,.135,4.18,5.754,5.754,0,0,0,5.669,4.69,5.97,5.97,0,0,0,5.75-4.647,21.442,21.442,0,0,0,.236-3.857,1.476,1.476,0,0,0-1.66-1.646C-1661.626,278.438-1663.043,278.442-1664.46,278.443Zm6.951-.39a1.522,1.522,0,0,0,.086-.268,4.871,4.871,0,0,0-2.831-5.189,10.349,10.349,0,0,0-5.642-.738,7.319,7.319,0,0,0-3.955,1.518,4.774,4.774,0,0,0-1.561,4.6,3.642,3.642,0,0,1,3.311-1.192c2.342,0,4.684.025,7.026-.01C-1659.728,276.759-1658.444,276.834-1657.509,278.053Z" transform="translate(-60.028 0)"/>
  </g>
</svg>
